<svg width="101" height="132" viewBox="0 0 101 132" fill="none" xmlns="http://www.w3.org/2000/svg">
<rect width="43.1516" height="43.479" rx="21.5758" transform="matrix(0.865244 -0.50135 0.490232 0.871592 0 21.634)" fill="#C4C4C4"/>
<rect width="43.1516" height="43.479" rx="21.5758" transform="matrix(0.865244 -0.50135 0.490232 0.871592 0 21.634)" fill="url(#paint0_radial_844_242)"/>
<g filter="url(#filter0_b_844_242)">
<path d="M0 72.024C0 44.178 13.9688 30 41.4038 30H59.0909C86.5259 30 100.495 44.178 100.495 72.024V89.976C100.495 117.822 86.5259 132 59.0909 132H41.4038C13.9688 132 0 117.822 0 89.976V72.024Z" fill="url(#paint1_radial_844_242)" fill-opacity="0.25"/>
<path d="M1.5 72.024C1.5 58.3335 4.93294 48.2699 11.4823 41.6225C18.0277 34.979 27.9302 31.5 41.4038 31.5H59.0909C72.5645 31.5 82.467 34.979 89.0124 41.6225C95.5617 48.2699 98.9947 58.3335 98.9947 72.024V89.976C98.9947 103.667 95.5617 113.73 89.0124 120.378C82.467 127.021 72.5645 130.5 59.0909 130.5H41.4038C27.9302 130.5 18.0277 127.021 11.4823 120.378C4.93294 113.73 1.5 103.667 1.5 89.976V72.024Z" stroke="url(#paint2_linear_844_242)" stroke-width="3"/>
</g>
<path d="M41.5614 80.7273C41.5614 75.7067 45.5704 71.6357 50.5171 71.6357C55.4638 71.6357 59.4749 75.7067 59.4749 80.7273C59.4749 85.7479 55.4638 89.819 50.5171 89.819C45.5704 89.819 41.5614 85.7479 41.5614 80.7273ZM36.719 80.7273C36.719 88.4619 42.8964 94.7315 50.5171 94.7315C58.1378 94.7315 64.3152 88.4619 64.3152 80.7273C64.3152 72.9928 58.1378 66.7231 50.5171 66.7231C42.8964 66.7231 36.719 72.9928 36.719 80.7273ZM61.6369 66.1678C61.6362 67.9753 63.0793 69.4411 64.8601 69.4419C66.641 69.4426 68.0853 67.9779 68.086 66.1704C68.0867 64.363 66.6436 62.8971 64.8627 62.8964H64.8614C63.0814 62.8973 61.6384 64.3612 61.6369 66.1678ZM39.6611 102.927C37.0413 102.806 35.6173 102.363 34.671 101.988C33.4164 101.493 32.5213 100.902 31.5801 99.9485C30.639 98.9946 30.0564 98.087 29.5702 96.8136C29.2013 95.8536 28.7649 94.408 28.6458 91.749C28.5155 88.8742 28.4895 88.0107 28.4895 80.7275C28.4895 73.4444 28.5177 72.5832 28.6458 69.7061C28.7651 67.0471 29.2047 65.6043 29.5702 64.6414C30.0586 63.3681 30.6403 62.4596 31.5801 61.5044C32.52 60.5492 33.4143 59.9579 34.671 59.4644C35.6169 59.09 37.0413 58.6471 39.6611 58.5262C42.4935 58.394 43.3444 58.3676 50.5171 58.3676C57.6898 58.3676 58.5415 58.3962 61.3763 58.5262C63.9962 58.6473 65.4178 59.0935 66.3664 59.4644C67.621 59.9579 68.5161 60.5505 69.4573 61.5044C70.3984 62.4583 70.9789 63.3681 71.4673 64.6414C71.8362 65.6014 72.2725 67.0471 72.3916 69.7061C72.5219 72.5832 72.5479 73.4444 72.5479 80.7275C72.5479 88.0107 72.5219 88.8718 72.3916 91.749C72.2723 94.408 71.8338 95.8532 71.4673 96.8136C70.9789 98.087 70.3971 98.9955 69.4573 99.9485C68.5174 100.902 67.621 101.493 66.3664 101.988C65.4206 102.363 63.9962 102.806 61.3763 102.927C58.5439 103.059 57.693 103.085 50.5171 103.085C43.3412 103.085 42.4927 103.059 39.6611 102.927ZM39.4386 53.6198C36.578 53.752 34.6233 54.2123 32.9162 54.8865C31.1483 55.5827 29.6516 56.5168 28.1561 58.0323C26.6605 59.5478 25.7426 61.0691 25.0566 62.8635C24.3924 64.5971 23.9388 66.58 23.8085 69.4833C23.6761 72.3912 23.6458 73.3209 23.6458 80.7273C23.6458 88.1337 23.6761 89.0634 23.8085 91.9713C23.9388 94.8749 24.3924 96.8575 25.0566 98.5912C25.7426 100.384 26.6608 101.908 28.1561 103.422C29.6514 104.937 31.1483 105.87 32.9162 106.568C34.6265 107.242 36.578 107.703 39.4386 107.835C42.3052 107.967 43.2197 108 50.5171 108C57.8145 108 58.7305 107.969 61.5956 107.835C64.4564 107.703 66.4099 107.242 68.118 106.568C69.8849 105.87 71.3826 104.938 72.8781 103.422C74.3737 101.907 75.2896 100.384 75.9776 98.5912C76.6418 96.8575 77.0976 94.8747 77.2257 91.9713C77.3559 89.0612 77.3863 88.1337 77.3863 80.7273C77.3863 73.3209 77.3559 72.3912 77.2257 69.4833C77.0954 66.5798 76.6418 64.596 75.9776 62.8635C75.2896 61.0702 74.3713 59.5502 72.8781 58.0323C71.3849 56.5144 69.8849 55.5827 68.1202 54.8865C66.4099 54.2123 64.4562 53.7498 61.5978 53.6198C58.7326 53.4875 57.8166 53.4546 50.5193 53.4546C43.2219 53.4546 42.3052 53.4854 39.4386 53.6198Z" fill="url(#paint3_radial_844_242)"/>
<defs>
<filter id="filter0_b_844_242" x="-12" y="18" width="124.495" height="126" filterUnits="userSpaceOnUse" color-interpolation-filters="sRGB">
<feFlood flood-opacity="0" result="BackgroundImageFix"/>
<feGaussianBlur in="BackgroundImageFix" stdDeviation="6"/>
<feComposite in2="SourceAlpha" operator="in" result="effect1_backgroundBlur_844_242"/>
<feBlend mode="normal" in="SourceGraphic" in2="effect1_backgroundBlur_844_242" result="shape"/>
</filter>
<radialGradient id="paint0_radial_844_242" cx="0" cy="0" r="1" gradientUnits="userSpaceOnUse" gradientTransform="translate(5.73317 43.6843) scale(56.333 56.7604)">
<stop offset="0.09" stop-color="#FA8F21"/>
<stop offset="0.78" stop-color="#D82D7E"/>
</radialGradient>
<radialGradient id="paint1_radial_844_242" cx="0" cy="0" r="1" gradientUnits="userSpaceOnUse" gradientTransform="translate(13.3519 132.482) scale(131.193 133.158)">
<stop offset="0.09" stop-color="#FA8F21"/>
<stop offset="0.78" stop-color="#D82D7E"/>
</radialGradient>
<linearGradient id="paint2_linear_844_242" x1="10.4794" y1="40.6364" x2="92.0158" y2="120.969" gradientUnits="userSpaceOnUse">
<stop stop-color="white" stop-opacity="0.6"/>
<stop offset="0.395833" stop-color="white" stop-opacity="0"/>
<stop offset="0.586815" stop-color="#E04468" stop-opacity="0"/>
<stop offset="1" stop-color="#E04468" stop-opacity="0.5"/>
</linearGradient>
<radialGradient id="paint3_radial_844_242" cx="0" cy="0" r="1" gradientUnits="userSpaceOnUse" gradientTransform="translate(30.7858 108.258) scale(70.1565 71.2074)">
<stop offset="0.09" stop-color="#FA8F21"/>
<stop offset="0.78" stop-color="#D82D7E"/>
</radialGradient>
</defs>
</svg>
