<svg width="108" height="108" viewBox="0 0 108 108" fill="none" xmlns="http://www.w3.org/2000/svg">
<path d="M78.84 60.5362C81.7189 59.4854 84.8765 59.4854 87.7554 60.5362L93.6595 62.6914C95.9898 63.542 98.028 65.0415 99.5336 67.013L103.494 72.1984C105.307 74.5731 106.247 77.5001 106.156 80.4867L105.952 87.1532C105.877 89.5935 105.117 91.9635 103.758 93.9917L100.127 99.4106C98.4371 101.932 95.9188 103.783 93.008 104.642L86.9789 106.422C84.576 107.132 82.0194 107.132 79.6165 106.422L73.5874 104.642C70.6767 103.783 68.1583 101.932 66.4689 99.4106L62.8379 93.9917C61.4789 91.9635 60.7185 89.5935 60.6437 87.1532L60.4395 80.4867C60.3481 77.5001 61.2882 74.5731 63.1018 72.1984L67.0619 67.013C68.5674 65.0415 70.6057 63.542 72.9359 62.6914L78.84 60.5362Z" fill="#1DA1F2"/>
<g filter="url(#filter0_b_844_250)">
<path d="M0 42.024C0 14.178 13.9688 0 41.4038 0H59.0909C86.5259 0 100.495 14.178 100.495 42.024V59.976C100.495 87.822 86.5259 102 59.0909 102H41.4038C13.9688 102 0 87.822 0 59.976V42.024Z" fill="url(#paint0_linear_844_250)"/>
<path d="M1.5 42.024C1.5 28.3335 4.93294 18.2699 11.4823 11.6225C18.0277 4.97905 27.9302 1.5 41.4038 1.5H59.0909C72.5645 1.5 82.467 4.97905 89.0124 11.6225C95.5617 18.2699 98.9947 28.3335 98.9947 42.024V59.976C98.9947 73.6665 95.5617 83.7301 89.0124 90.3775C82.467 97.021 72.5645 100.5 59.0909 100.5H41.4038C27.9302 100.5 18.0277 97.021 11.4823 90.3775C4.93294 83.7301 1.5 73.6665 1.5 59.976V42.024Z" stroke="url(#paint1_linear_844_250)" stroke-width="3"/>
</g>
<path d="M75.7741 35.3333C73.9164 36.1424 71.9207 36.689 69.8228 36.9361C71.9875 35.663 73.607 33.6593 74.3791 31.2988C72.3453 32.4861 70.1194 33.3219 67.7982 33.7698C66.2372 32.1316 64.1697 31.0458 61.9166 30.681C59.6635 30.3161 57.3508 30.6926 55.3377 31.752C53.3246 32.8114 51.7236 34.4944 50.7834 36.5397C49.8431 38.585 49.6162 40.8783 50.1378 43.0633C46.0168 42.86 41.9854 41.8072 38.3051 39.9733C34.6249 38.1394 31.3781 35.5654 28.7754 32.4184C27.8855 33.9272 27.3738 35.6766 27.3738 37.5397C27.3728 39.2169 27.793 40.8684 28.5972 42.3477C29.4013 43.827 30.5645 45.0883 31.9836 46.0198C30.3378 45.9683 28.7284 45.5312 27.2893 44.7449V44.8761C27.2891 47.2285 28.117 49.5084 29.6324 51.3291C31.1478 53.1498 33.2574 54.3991 35.6033 54.8651C34.0766 55.2712 32.476 55.331 30.9223 55.04C31.5842 57.0641 32.8735 58.834 34.6096 60.1021C36.3458 61.3702 38.4419 62.0729 40.6046 62.1119C36.9333 64.9446 32.3993 66.4811 27.732 66.4744C26.9052 66.4746 26.0791 66.4271 25.258 66.3322C29.9957 69.3262 35.5106 70.9152 41.143 70.909C60.2094 70.909 70.6326 55.3877 70.6326 41.9262C70.6326 41.4889 70.6214 41.0472 70.6014 40.6098C72.6289 39.1687 74.3789 37.3842 75.7696 35.3398L75.7741 35.3333Z" fill="#1DA1F2"/>
<defs>
<filter id="filter0_b_844_250" x="-12" y="-12" width="124.495" height="126" filterUnits="userSpaceOnUse" color-interpolation-filters="sRGB">
<feFlood flood-opacity="0" result="BackgroundImageFix"/>
<feGaussianBlur in="BackgroundImageFix" stdDeviation="6"/>
<feComposite in2="SourceAlpha" operator="in" result="effect1_backgroundBlur_844_250"/>
<feBlend mode="normal" in="SourceGraphic" in2="effect1_backgroundBlur_844_250" result="shape"/>
</filter>
<linearGradient id="paint0_linear_844_250" x1="0" y1="0" x2="51.2671" y2="50.5105" gradientUnits="userSpaceOnUse">
<stop stop-color="#1DA1F2" stop-opacity="0.6"/>
<stop offset="1" stop-color="#1DA1F2" stop-opacity="0.2"/>
</linearGradient>
<linearGradient id="paint1_linear_844_250" x1="10.4794" y1="10.6364" x2="92.0158" y2="90.9695" gradientUnits="userSpaceOnUse">
<stop stop-color="white" stop-opacity="0.6"/>
<stop offset="0.395833" stop-color="white" stop-opacity="0"/>
<stop offset="0.586815" stop-color="#1DA1F2" stop-opacity="0"/>
<stop offset="1" stop-color="#1DA1F2" stop-opacity="0.5"/>
</linearGradient>
</defs>
</svg>
