<svg width="1392" height="1150" viewBox="0 0 1392 1150" fill="none" xmlns="http://www.w3.org/2000/svg">
<g filter="url(#filter0_d_85_69)">
<mask id="path-1-inside-1_85_69" fill="white">
<path d="M1197.95 1117.32C1090.88 1131.24 992.767 1055.72 978.822 948.645L978.251 944.262C964.305 837.189 1039.8 739.109 1146.88 725.195C1253.96 711.28 1352.06 786.8 1366.01 893.873L1366.58 898.256C1380.53 1005.33 1305.03 1103.41 1197.95 1117.32Z"/>
</mask>
<path d="M1197.95 1117.32C1090.88 1131.24 992.767 1055.72 978.822 948.645L978.251 944.262C964.305 837.189 1039.8 739.109 1146.88 725.195C1253.96 711.28 1352.06 786.8 1366.01 893.873L1366.58 898.256C1380.53 1005.33 1305.03 1103.41 1197.95 1117.32Z" fill="url(#paint0_linear_85_69)" shape-rendering="crispEdges"/>
<path d="M1190.23 1118.33C1081.94 1132.4 982.723 1056.03 968.62 947.742C954.516 839.459 1030.87 740.271 1139.16 726.199L1146.88 725.195C1045.28 738.398 974.222 835.9 988.167 942.973L988.738 947.357C1002.68 1054.43 1096.35 1130.53 1197.95 1117.32L1190.23 1118.33ZM1340.76 700L1391.83 1092.13L1340.76 700ZM1391.83 1092.13L1004.07 1142.52L1391.83 1092.13ZM953 750.389L1340.76 700L953 750.389Z" fill="url(#paint1_linear_85_69)" fill-opacity="0.4904" mask="url(#path-1-inside-1_85_69)"/>
</g>
<g filter="url(#filter1_d_85_69)">
<mask id="path-3-inside-2_85_69" fill="white">
<path d="M37.2184 181.554C57.7223 88.697 149.721 29.586 242.588 50.0458C335.455 70.5057 394.024 162.789 373.52 255.646C353.016 348.503 261.018 407.614 168.151 387.154C75.2835 366.695 16.7146 274.412 37.2184 181.554Z"/>
</mask>
<path d="M37.2184 181.554C57.7223 88.697 149.721 29.586 242.588 50.0458C335.455 70.5057 394.024 162.789 373.52 255.646C353.016 348.503 261.018 407.614 168.151 387.154C75.2835 366.695 16.7146 274.412 37.2184 181.554Z" fill="url(#paint2_linear_85_69)" shape-rendering="crispEdges"/>
<path d="M39.4676 171.368C59.9715 78.511 151.877 19.8212 244.744 40.2811C337.611 60.7409 396.273 152.603 375.769 245.46L373.613 255.225C392.926 167.76 333.299 80.2705 240.432 59.8106C147.564 39.3508 56.6245 93.6687 37.3115 181.133L39.4676 171.368ZM336.301 424.2L-0.000121914 350.109L336.301 424.2ZM-0.000121914 350.109L74.437 13L-0.000121914 350.109ZM410.738 87.0917L336.301 424.2L410.738 87.0917Z" fill="#F5F5F5" fill-opacity="0.4904" mask="url(#path-3-inside-2_85_69)"/>
</g>
<defs>
<filter id="filter0_d_85_69" x="921.591" y="686.543" width="459.649" height="463.433" filterUnits="userSpaceOnUse" color-interpolation-filters="sRGB">
<feFlood flood-opacity="0" result="BackgroundImageFix"/>
<feColorMatrix in="SourceAlpha" type="matrix" values="0 0 0 0 0 0 0 0 0 0 0 0 0 0 0 0 0 0 127 0" result="hardAlpha"/>
<feMorphology radius="16" operator="erode" in="SourceAlpha" result="effect1_dropShadow_85_69"/>
<feOffset dx="-21" dy="-3"/>
<feGaussianBlur stdDeviation="25"/>
<feComposite in2="hardAlpha" operator="out"/>
<feColorMatrix type="matrix" values="0 0 0 0 1 0 0 0 0 1 0 0 0 0 1 0 0 0 0.1 0"/>
<feBlend mode="normal" in2="BackgroundImageFix" result="effect1_dropShadow_85_69"/>
<feBlend mode="normal" in="SourceGraphic" in2="effect1_dropShadow_85_69" result="shape"/>
</filter>
<filter id="filter1_d_85_69" x="18.1274" y="0.997025" width="374.483" height="390.206" filterUnits="userSpaceOnUse" color-interpolation-filters="sRGB">
<feFlood flood-opacity="0" result="BackgroundImageFix"/>
<feColorMatrix in="SourceAlpha" type="matrix" values="0 0 0 0 0 0 0 0 0 0 0 0 0 0 0 0 0 0 127 0" result="hardAlpha"/>
<feMorphology radius="35" operator="erode" in="SourceAlpha" result="effect1_dropShadow_85_69"/>
<feOffset dy="-30"/>
<feGaussianBlur stdDeviation="25"/>
<feComposite in2="hardAlpha" operator="out"/>
<feColorMatrix type="matrix" values="0 0 0 0 1 0 0 0 0 1 0 0 0 0 1 0 0 0 0.1 0"/>
<feBlend mode="normal" in2="BackgroundImageFix" result="effect1_dropShadow_85_69"/>
<feBlend mode="normal" in="SourceGraphic" in2="effect1_dropShadow_85_69" result="shape"/>
</filter>
<linearGradient id="paint0_linear_85_69" x1="978.536" y1="946.454" x2="1366.28" y2="895.952" gradientUnits="userSpaceOnUse">
<stop stop-color="#ECECEC" stop-opacity="0.490385"/>
<stop offset="0.0677083" stop-color="#EBEBEB" stop-opacity="0.346154"/>
<stop offset="0.130208" stop-color="#EBEBEB" stop-opacity="0.25"/>
<stop offset="0.229167" stop-color="#EBEBEB" stop-opacity="0.14011"/>
<stop offset="0.338542" stop-color="#EBEBEB" stop-opacity="0.0540775"/>
<stop offset="0.442708" stop-color="#EBEBEB" stop-opacity="0.0309014"/>
<stop offset="0.911458" stop-color="#EBEBEB" stop-opacity="0"/>
</linearGradient>
<linearGradient id="paint1_linear_85_69" x1="978.536" y1="946.454" x2="1366.28" y2="895.952" gradientUnits="userSpaceOnUse">
<stop stop-color="#6F6F6F"/>
<stop offset="1" stop-color="#F5F5F5" stop-opacity="0"/>
</linearGradient>
<linearGradient id="paint2_linear_85_69" x1="242.588" y1="50.0458" x2="168.31" y2="387.19" gradientUnits="userSpaceOnUse">
<stop stop-color="#ECECEC" stop-opacity="0.490385"/>
<stop offset="0.0677083" stop-color="#EBEBEB" stop-opacity="0.346154"/>
<stop offset="0.130208" stop-color="#EBEBEB" stop-opacity="0.25"/>
<stop offset="0.229167" stop-color="#EBEBEB" stop-opacity="0.14011"/>
<stop offset="0.338542" stop-color="#EBEBEB" stop-opacity="0.0540775"/>
<stop offset="0.442708" stop-color="#EBEBEB" stop-opacity="0.0309014"/>
<stop offset="0.911458" stop-color="#EBEBEB" stop-opacity="0"/>
</linearGradient>
</defs>
</svg>
